<svg xmlns="http://www.w3.org/2000/svg" viewBox="0 0 13.43 17.76"><defs><style>.cls-1{fill:#7000cb;}</style></defs><g id="Layer_2" data-name="Layer 2"><g id="Layer_1-2" data-name="Layer 1"><path d="M5.71,14.75A5.39,5.39,0,0,0,5.71,4,5.15,5.15,0,0,0,1.92,5.53,5.63,5.63,0,0,0,.43,9.23a.42.42,0,1,0,.84,0A4.81,4.81,0,0,1,2.53,6.11,4.28,4.28,0,0,1,5.71,4.82a4.56,4.56,0,0,1,4.55,4.54,4.56,4.56,0,0,1-4.55,4.55.42.42,0,1,0,0,.84Z"/><path d="M5.71,14.75v.43a5.82,5.82,0,0,0,0-11.64h0A5.6,5.6,0,0,0,1.61,5.23,6,6,0,0,0,0,9.22H0v0a.85.85,0,0,0,.82.85h0a.85.85,0,0,0,.85-.82A4.33,4.33,0,0,1,2.84,6.41,3.85,3.85,0,0,1,5.71,5.24,4.13,4.13,0,0,1,8.62,6.45a4.12,4.12,0,0,1-2.91,7,.85.85,0,1,0,0,1.7v-.86h0a5,5,0,1,0,0-9.95A4.72,4.72,0,0,0,2.22,5.81,5.23,5.23,0,0,0,.84,9.25h0A5.15,5.15,0,0,1,2.23,5.82,4.72,4.72,0,0,1,5.7,4.4h0a5,5,0,0,1,0,9.92Z"/><path d="M6.14,17A3.43,3.43,0,0,0,3.7,16a3.71,3.71,0,0,0-2.52,1,.28.28,0,0,0,0,.4.27.27,0,0,0,.39,0,3.18,3.18,0,0,1,2.14-.89,2.82,2.82,0,0,1,2,.89.28.28,0,0,0,.4-.4Z"/><path d="M6.14,17l.2-.2A3.72,3.72,0,0,0,3.7,15.66h0v0A4,4,0,0,0,1,16.78a.55.55,0,0,0-.18.41.58.58,0,0,0,.15.39.55.55,0,0,0,.41.18.58.58,0,0,0,.39-.15,2.85,2.85,0,0,1,1.94-.82,2.58,2.58,0,0,1,1.84.81.58.58,0,0,0,.8,0,.58.58,0,0,0,.17-.4.56.56,0,0,0-.17-.4l-.2.2-.2.2h0a3.14,3.14,0,0,0-2.24-1,3.47,3.47,0,0,0-2.33,1h0a3.42,3.42,0,0,1,2.33-1h0a3.14,3.14,0,0,1,2.24,1Z"/><path d="M6.62,9.59H5.69V7.8a.6.6,0,1,0-1.2,0v2.4a.6.6,0,0,0,.6.6H6.62a.61.61,0,0,0,0-1.21Z"/><path class="cls-1" d="M12.83,2.4H11V.6a.6.6,0,0,0-1.2,0V3a.6.6,0,0,0,.6.6h2.4a.6.6,0,0,0,0-1.2Z"/></g></g></svg>