<svg xmlns="http://www.w3.org/2000/svg" xmlns:xlink="http://www.w3.org/1999/xlink" viewBox="0 0 175.58 237.33"><defs><style>.cls-1{fill:#fff;}.cls-2{fill:url(#linear-gradient);}.cls-3{fill:url(#linear-gradient-2);}.cls-4{fill:url(#linear-gradient-3);}.cls-5{fill:url(#linear-gradient-4);}.cls-6{fill:url(#linear-gradient-5);}.cls-7{fill:url(#linear-gradient-6);}.cls-8{fill:url(#linear-gradient-7);}.cls-9{fill:url(#linear-gradient-9);}.cls-10{fill:url(#linear-gradient-10);}.cls-11{fill:url(#linear-gradient-11);}.cls-12{fill:url(#linear-gradient-12);}.cls-13{fill:url(#linear-gradient-13);}.cls-14{fill:url(#linear-gradient-15);}.cls-15{fill:url(#linear-gradient-16);}.cls-16{fill:url(#linear-gradient-17);}.cls-17{fill:url(#linear-gradient-18);}.cls-18{fill:url(#linear-gradient-19);}.cls-19{fill:url(#linear-gradient-21);}.cls-20{fill:url(#linear-gradient-22);}.cls-21{fill:url(#linear-gradient-23);}</style><linearGradient id="linear-gradient" x1="156.36" y1="78.24" x2="159.78" y2="78.24" gradientUnits="userSpaceOnUse"><stop offset="0" stop-color="#006994"/><stop offset="1" stop-color="#a52aff"/></linearGradient><linearGradient id="linear-gradient-2" x1="161.26" y1="18.94" x2="175.58" y2="18.94" xlink:href="#linear-gradient"/><linearGradient id="linear-gradient-3" x1="161.26" y1="38.64" x2="175.58" y2="38.64" xlink:href="#linear-gradient"/><linearGradient id="linear-gradient-4" x1="164.76" y1="23.62" x2="174.73" y2="23.62" xlink:href="#linear-gradient"/><linearGradient id="linear-gradient-5" x1="164.76" y1="26.99" x2="174.73" y2="26.99" xlink:href="#linear-gradient"/><linearGradient id="linear-gradient-6" x1="164.76" y1="30.35" x2="174.73" y2="30.35" xlink:href="#linear-gradient"/><linearGradient id="linear-gradient-7" x1="164.76" y1="33.71" x2="174.73" y2="33.71" xlink:href="#linear-gradient"/><linearGradient id="linear-gradient-9" x1="161.26" y1="58.34" x2="175.58" y2="58.34" xlink:href="#linear-gradient"/><linearGradient id="linear-gradient-10" x1="164.76" y1="43.32" x2="174.73" y2="43.32" xlink:href="#linear-gradient"/><linearGradient id="linear-gradient-11" x1="164.76" y1="46.69" x2="174.73" y2="46.69" xlink:href="#linear-gradient"/><linearGradient id="linear-gradient-12" x1="164.76" y1="50.05" x2="174.73" y2="50.05" xlink:href="#linear-gradient"/><linearGradient id="linear-gradient-13" x1="164.76" y1="53.42" x2="174.73" y2="53.42" xlink:href="#linear-gradient"/><linearGradient id="linear-gradient-15" x1="161.26" y1="78.04" x2="175.58" y2="78.04" xlink:href="#linear-gradient"/><linearGradient id="linear-gradient-16" x1="164.76" y1="63.03" x2="174.73" y2="63.03" xlink:href="#linear-gradient"/><linearGradient id="linear-gradient-17" x1="164.76" y1="66.39" x2="174.73" y2="66.39" xlink:href="#linear-gradient"/><linearGradient id="linear-gradient-18" x1="164.76" y1="69.75" x2="174.73" y2="69.75" xlink:href="#linear-gradient"/><linearGradient id="linear-gradient-19" x1="164.76" y1="73.12" x2="174.73" y2="73.12" xlink:href="#linear-gradient"/><linearGradient id="linear-gradient-21" x1="153.31" y1="18.63" x2="154.92" y2="18.63" xlink:href="#linear-gradient"/><linearGradient id="linear-gradient-22" x1="155.42" y1="18.59" x2="157.56" y2="18.59" xlink:href="#linear-gradient"/><linearGradient id="linear-gradient-23" x1="158.05" y1="18.89" x2="160.15" y2="18.89" xlink:href="#linear-gradient"/></defs><g id="Layer_2" data-name="Layer 2"><g id="Layer_1-2" data-name="Layer 1"><path class="cls-1" d="M70.4,182.71A66.66,66.66,0,0,0,132,116.3c0-1.71-.06-3.44-.2-5.18a66.68,66.68,0,0,0-66.4-61.56c-1.72,0-3.45.07-5.19.2A67.9,67.9,0,0,0,35,56.54,61.05,61.05,0,0,0,9.1,81,70.78,70.78,0,0,0,0,116.37c0,1.1,0,2.19.07,3.3a3,3,0,1,0,6-.25c0-1-.06-2-.06-3,0-15.82,5.16-30.31,14.51-41.16a54.78,54.78,0,0,1,17.12-13.3,62,62,0,0,1,23-6.17c1.59-.12,3.17-.18,4.73-.18a60.69,60.69,0,0,1,60.42,56c.12,1.59.18,3.16.18,4.72a60.67,60.67,0,0,1-56,60.43,3,3,0,1,0,.46,6Z"/><path class="cls-1" d="M118.91,225.15a66.67,66.67,0,0,0-94,7.23,3,3,0,0,0,4.56,3.91A60.68,60.68,0,0,1,115,229.7a3,3,0,1,0,3.9-4.55Z"/><path class="cls-1" d="M150.13,12.24V89.15a56.42,56.42,0,0,0,6.75,26.76l4.24,7.88a1.22,1.22,0,0,0,2.13,0l4.25-7.64a56.42,56.42,0,0,0,7.11-27.41V12.24A12.24,12.24,0,0,0,162.37,0h0A12.24,12.24,0,0,0,150.13,12.24Z"/><path class="cls-2" d="M159.78,78.25l-.13.82-.36.64-.54.43-.68.15-.69-.15-.54-.43-.35-.64-.13-.82.13-.83.35-.64.54-.43.69-.16.68.16.54.43.36.64Zm-.6,0-.09-.61-.22-.48-.36-.31-.44-.1-.46.1-.35.31-.23.48-.08.61.08.61.23.47.35.3.46.11.44-.11.36-.3.22-.47Z"/><path class="cls-3" d="M174.73,18.08H162.12a.86.86,0,1,0,0,1.71h12.61a.86.86,0,0,0,0-1.71"/><path class="cls-4" d="M174.73,37.79H162.12a.85.85,0,1,0,0,1.7h12.61a.85.85,0,0,0,0-1.7"/><polyline class="cls-5" points="174.73 23.45 164.76 23.45 164.76 23.79 174.73 23.79"/><polyline class="cls-6" points="174.73 26.82 164.76 26.82 164.76 27.16 174.73 27.16"/><polyline class="cls-7" points="174.73 30.18 164.76 30.18 164.76 30.52 174.73 30.52"/><polyline class="cls-8" points="174.73 33.54 164.76 33.54 164.76 33.88 174.73 33.88"/><path class="cls-4" d="M174.73,37.79H162.12a.85.85,0,1,0,0,1.7h12.61a.85.85,0,0,0,0-1.7"/><path class="cls-9" d="M174.73,57.49H162.12a.85.85,0,1,0,0,1.7h12.61a.85.85,0,1,0,0-1.7"/><polyline class="cls-10" points="174.73 43.15 164.76 43.15 164.76 43.49 174.73 43.49"/><polyline class="cls-11" points="174.73 46.52 164.76 46.52 164.76 46.86 174.73 46.86"/><polyline class="cls-12" points="174.73 49.88 164.76 49.88 164.76 50.22 174.73 50.22"/><polyline class="cls-13" points="174.73 53.24 164.76 53.24 164.76 53.59 174.73 53.59"/><path class="cls-9" d="M174.73,57.49H162.12a.85.85,0,1,0,0,1.7h12.61a.85.85,0,1,0,0-1.7"/><path class="cls-14" d="M174.73,77.19H162.12a.86.86,0,1,0,0,1.71h12.61a.86.86,0,0,0,.85-.86.85.85,0,0,0-.85-.85"/><polyline class="cls-15" points="174.73 62.85 164.76 62.85 164.76 63.2 174.73 63.2"/><polyline class="cls-16" points="174.73 66.22 164.76 66.22 164.76 66.56 174.73 66.56"/><polyline class="cls-17" points="174.73 69.58 164.76 69.58 164.76 69.92 174.73 69.92"/><polyline class="cls-18" points="174.73 72.95 164.76 72.95 164.76 73.29 174.73 73.29"/><path class="cls-14" d="M174.73,77.19H162.12a.86.86,0,1,0,0,1.71h12.61a.86.86,0,0,0,.85-.86.85.85,0,0,0-.85-.85"/><polygon class="cls-19" points="154.92 19.5 154.92 19.83 153.4 19.83 153.4 19.5 154 19.5 154 17.84 153.88 17.95 153.7 18.06 153.5 18.14 153.31 18.17 153.31 17.82 153.52 17.77 153.74 17.64 153.91 17.51 154 17.42 154.38 17.42 154.38 19.5 154.92 19.5"/><path class="cls-20" d="M157.56,18.59l-.08.52-.23.4-.34.27-.42.1-.43-.1-.34-.27-.22-.4-.08-.52.08-.51.22-.41.34-.27.43-.09.42.09.34.27.23.41Zm-.38,0-.05-.38-.14-.3-.22-.19-.28-.07-.29.07-.22.19-.14.3-.05.38.05.39.14.29.22.19.29.07.28-.07.22-.19.14-.29Z"/><path class="cls-21" d="M159.41,20.37v-.71h-1.36v-.33l1.47-1.91h.26v1.9h.37v.34h-.37v.71Zm-1-1.05h1V18Z"/></g></g></svg>