<?xml version="1.0" encoding="UTF-8" standalone="no"?>
<!DOCTYPE svg PUBLIC "-//W3C//DTD SVG 1.1//EN" "http://www.w3.org/Graphics/SVG/1.1/DTD/svg11.dtd">
<svg version="1.1" xmlns="http://www.w3.org/2000/svg" xmlns:xlink="http://www.w3.org/1999/xlink" preserveAspectRatio="xMidYMid meet" viewBox="0 0 640 640" width="640" height="640"><defs><path d="M317.31 321.34C209.75 213.78 149.99 154.02 138.04 142.07C104.96 114.88 57.28 114.88 24.2 142.07C-6.05 176.05 -6.05 227.31 24.2 261.29C47.87 284.86 237.18 473.46 260.84 497.03C292.57 529.7 344.78 530.47 377.45 498.74C378.03 498.18 378.6 497.61 379.16 497.03C402.73 473.46 591.33 284.86 614.9 261.29C645.17 225.95 641.06 172.76 605.72 142.48C574.35 115.62 528.15 115.45 496.58 142.07C472.68 165.98 412.92 225.73 317.31 321.34Z" id="bskcjWuv"></path></defs><g><g><g><use xlink:href="#bskcjWuv" opacity="1" fill="#0000ff" fill-opacity="1"></use><g><use xlink:href="#bskcjWuv" opacity="1" fill-opacity="0" stroke="#000000" stroke-width="1" stroke-opacity="0"></use></g></g></g></g></svg>