<svg xmlns="http://www.w3.org/2000/svg" viewBox="0 0 26.78 37.12"><defs><style>.cls-1{fill:#fff;}</style></defs><g id="Layer_2" data-name="Layer 2"><g id="Layer_1-2" data-name="Layer 1"><path class="cls-1" d="M13.26,27.06A13.53,13.53,0,0,0,13.26,0,12.85,12.85,0,0,0,3.75,3.9,14.11,14.11,0,0,0,0,13.2a1,1,0,1,0,2,.07,12,12,0,0,1,3.2-8A10.88,10.88,0,0,1,13.26,2a11.53,11.53,0,0,1,0,23.06,1,1,0,0,0,0,2Z"/><path class="cls-1" d="M4.7,36.83a11.53,11.53,0,0,1,16.31,0,1,1,0,0,0,1.41,0,1,1,0,0,0,0-1.42,13.53,13.53,0,0,0-19.13,0,1,1,0,0,0,0,1.42,1,1,0,0,0,1.41,0Z"/></g></g></svg>