<svg xmlns="http://www.w3.org/2000/svg" viewBox="0 0 12.13 15.63"><defs><style>.cls-1{opacity:0.4;}.cls-2{fill:#424242;}</style></defs><g id="Layer_2" data-name="Layer 2"><g id="Layer_1-2" data-name="Layer 1"><g class="cls-1"><path class="cls-2" d="M4.36,12.34a4.12,4.12,0,0,0,0-8.23A3.9,3.9,0,0,0,1.47,5.3,4.27,4.27,0,0,0,.33,8.12a.32.32,0,0,0,.31.34A.33.33,0,0,0,1,8.15a3.64,3.64,0,0,1,1-2.41,3.27,3.27,0,0,1,2.43-1,3.47,3.47,0,1,1,0,6.94.33.33,0,0,0,0,.65Z"/><path class="cls-2" d="M4.36,12.34v.32a4.44,4.44,0,0,0,0-8.88h0A4.24,4.24,0,0,0,1.23,5.07,4.62,4.62,0,0,0,0,8.11H0v0a.65.65,0,0,0,.63.64h0a.65.65,0,0,0,.65-.62A3.29,3.29,0,0,1,2.17,6a2.91,2.91,0,0,1,2.19-.89A3.14,3.14,0,0,1,7.5,8.22a3.14,3.14,0,0,1-3.14,3.15.65.65,0,1,0,0,1.29V12h0a3.79,3.79,0,0,0,3.79-3.8A3.79,3.79,0,0,0,4.36,4.43,3.59,3.59,0,0,0,1.7,5.51,4,4,0,0,0,.64,8.14h0a4,4,0,0,1,1-2.62A3.58,3.58,0,0,1,4.35,4.44h0a3.79,3.79,0,0,1,0,7.57Z"/><path class="cls-2" d="M7,14.75a3.91,3.91,0,0,0-2.8-1.21,4.27,4.27,0,0,0-2.89,1.2.32.32,0,0,0,.44.47,3.61,3.61,0,0,1,2.45-1,3.3,3.3,0,0,1,2.35,1A.32.32,0,0,0,7,14.75Z"/><path class="cls-2" d="M7,14.75l.23-.23a4.22,4.22,0,0,0-3-1.3h0v0A4.58,4.58,0,0,0,1.13,14.5.64.64,0,0,0,.92,15a.65.65,0,0,0,.65.65A.7.7,0,0,0,2,15.45a3.27,3.27,0,0,1,2.22-.94,3,3,0,0,1,2.12.93A.65.65,0,0,0,7.46,15a.62.62,0,0,0-.19-.46L7,14.75,6.81,15h0a3.61,3.61,0,0,0-2.58-1.11A3.93,3.93,0,0,0,1.57,15h0a3.89,3.89,0,0,1,2.66-1.11h0A3.58,3.58,0,0,1,6.81,15Z"/><path class="cls-2" d="M8.68,1.38h2.07V3.44a.69.69,0,0,0,1.38,0V.69A.69.69,0,0,0,11.44,0H8.68a.69.69,0,0,0,0,1.38Z"/></g></g></g></svg>