<svg xmlns="http://www.w3.org/2000/svg" xmlns:xlink="http://www.w3.org/1999/xlink" viewBox="0 0 69.62 17.21"><defs><style>.cls-1,.cls-2,.cls-3{fill:none;stroke-linecap:round;stroke-linejoin:round;stroke-width:0.75px;}.cls-1{stroke:url(#linear-gradient);}.cls-2{stroke:url(#linear-gradient-2);}.cls-3{stroke:url(#linear-gradient-3);}</style><linearGradient id="linear-gradient" y1="8.61" x2="10.57" y2="8.61" gradientUnits="userSpaceOnUse"><stop offset="0" stop-color="#29abe2"/><stop offset="1" stop-color="#0071bc"/></linearGradient><linearGradient id="linear-gradient-2" x1="9.82" y1="5.35" x2="20.19" y2="5.35" gradientUnits="userSpaceOnUse"><stop offset="0" stop-color="#ff931e"/><stop offset="1" stop-color="#ff1d25"/></linearGradient><linearGradient id="linear-gradient-3" x1="14.57" y1="9.53" x2="22.2" y2="9.53" gradientUnits="userSpaceOnUse"><stop offset="0" stop-color="#ff1d25"/><stop offset="1" stop-color="#ff8a1f"/></linearGradient></defs><g id="Layer_2" data-name="Layer 2"><g id="Layer_1-2" data-name="Layer 1"><path class="cls-1" d="M10.19,5.13A4.9,4.9,0,0,0,5.33.38,4.85,4.85,0,0,0,.47,5.24s-1.55,5.6,8.1,11.6"/><path class="cls-2" d="M15,10.21A4.86,4.86,0,1,0,15,.49a4.69,4.69,0,0,0-4.76,4.75"/><path class="cls-3" d="M21.82,10.24a4.86,4.86,0,0,0-6.88,0"/><path d="M39.16,3l-6.61,9.94H31.47L38.08,3Z"/><path d="M47.29,12.91h-.95V8.83A3.24,3.24,0,0,0,45.91,7a1.41,1.41,0,0,0-1.25-.61,2.13,2.13,0,0,0-.81.16A2.89,2.89,0,0,0,43.1,7a2.72,2.72,0,0,0-.6.66,2.48,2.48,0,0,0-.39.82v4.47h-1V2.69h1V7.27A3.37,3.37,0,0,1,43.31,6,3.19,3.19,0,0,1,45,5.49,2.16,2.16,0,0,1,46,5.72a2,2,0,0,1,.72.64,2.91,2.91,0,0,1,.4,1,5.6,5.6,0,0,1,.13,1.28Z"/><path d="M53,13.05a3.5,3.5,0,0,1-1.46-.3,3.57,3.57,0,0,1-1.16-.83,3.88,3.88,0,0,1-.76-1.21,4,4,0,0,1-.27-1.47,3.89,3.89,0,0,1,.27-1.45,3.61,3.61,0,0,1,.76-1.19,3.65,3.65,0,0,1,4.07-.81,3.46,3.46,0,0,1,1.14.82,3.73,3.73,0,0,1,.74,1.19,3.79,3.79,0,0,1,.27,1.43v.22a.44.44,0,0,1,0,.15H50.37a3,3,0,0,0,.87,2,2.79,2.79,0,0,0,.83.57,2.59,2.59,0,0,0,1,.2,2.37,2.37,0,0,0,.7-.1,2.68,2.68,0,0,0,.65-.26,2.65,2.65,0,0,0,.53-.42,1.6,1.6,0,0,0,.36-.54l.83.23a2.31,2.31,0,0,1-.48.73,3.39,3.39,0,0,1-.71.58,3.28,3.28,0,0,1-.9.37A3.75,3.75,0,0,1,53,13.05Zm2.69-4.17A2.87,2.87,0,0,0,54.86,7,2.7,2.7,0,0,0,54,6.43a2.38,2.38,0,0,0-1-.2,2.5,2.5,0,0,0-1,.2,2.59,2.59,0,0,0-.83.54,2.71,2.71,0,0,0-.57.84,2.9,2.9,0,0,0-.26,1.07Z"/><path d="M60.49,13.05a2.56,2.56,0,0,1-1-.18,2.27,2.27,0,0,1-1.28-1.2,2.21,2.21,0,0,1-.18-.89,1.77,1.77,0,0,1,.22-.88,2.1,2.1,0,0,1,.63-.7,3.11,3.11,0,0,1,1-.46,4.7,4.7,0,0,1,1.23-.16,6.35,6.35,0,0,1,1.14.1,5.38,5.38,0,0,1,1,.28V8.3a2.1,2.1,0,0,0-.55-1.53,2,2,0,0,0-1.51-.57,3.23,3.23,0,0,0-1.15.23,5.56,5.56,0,0,0-1.19.64l-.33-.63a4.93,4.93,0,0,1,2.74-1,3,3,0,0,1,2.16.77,2.85,2.85,0,0,1,.78,2.13v3.29c0,.26.12.39.35.39v.84a2,2,0,0,1-.36,0,.81.81,0,0,1-.57-.18.67.67,0,0,1-.22-.51l0-.57a3.29,3.29,0,0,1-1.26,1A4,4,0,0,1,60.49,13.05Zm.23-.73A3.21,3.21,0,0,0,62.08,12a2.26,2.26,0,0,0,1-.74,1.26,1.26,0,0,0,.19-.28.66.66,0,0,0,.06-.27V9.56a6.6,6.6,0,0,0-1-.28,6,6,0,0,0-1-.1,2.91,2.91,0,0,0-1.64.42A1.28,1.28,0,0,0,59,10.71a1.51,1.51,0,0,0,.13.63,1.46,1.46,0,0,0,.37.51,1.55,1.55,0,0,0,.55.34A1.73,1.73,0,0,0,60.72,12.32Z"/><path d="M66.89,2.69h1v8.57a.85.85,0,0,0,.23.63.82.82,0,0,0,.63.23,1.71,1.71,0,0,0,.36,0,2.22,2.22,0,0,0,.39-.11l.17.77a3,3,0,0,1-.65.18,3.55,3.55,0,0,1-.67.07,1.3,1.3,0,0,1-1.41-1.41Z"/></g></g></svg>