<svg xmlns="http://www.w3.org/2000/svg" viewBox="0 0 30.69 38.29"><defs><style>.cls-1{fill:#fff;}</style></defs><g id="Layer_2" data-name="Layer 2"><g id="Layer_1-2" data-name="Layer 1"><path class="cls-1" d="M12.53,29.08a12.79,12.79,0,1,0,0-25.58,12.15,12.15,0,0,0-9,3.68A13.32,13.32,0,0,0,0,16a1,1,0,0,0,2,.07A11.26,11.26,0,0,1,5,8.57,10.16,10.16,0,0,1,12.53,5.5a10.79,10.79,0,1,1,0,21.58,1,1,0,0,0,0,2Z"/><path class="cls-1" d="M20.88,36.58a12.23,12.23,0,0,0-8.7-3.75,13.29,13.29,0,0,0-9,3.72A1,1,0,0,0,4.55,38a11.29,11.29,0,0,1,7.63-3.18A10.19,10.19,0,0,1,19.46,38a1,1,0,1,0,1.42-1.42Z"/><path class="cls-1" d="M29.69,6.38h-1a1.51,1.51,0,0,1-3,0A1.4,1.4,0,0,1,25.75,6,15.74,15.74,0,0,1,27,3.22c.26-.47.51-.9.7-1.2L28,1.66,28,1.53,27.19,1l-.85.53.1.17c.23.38.82,1.36,1.34,2.37a14.83,14.83,0,0,1,.67,1.45,4.2,4.2,0,0,1,.19.57.9.9,0,0,1,.05.29h2a3.39,3.39,0,0,0-.14-.91,17,17,0,0,0-1.47-3.22c-.55-1-1-1.77-1-1.78a1,1,0,0,0-1.69,0s-.64,1-1.29,2.23a20,20,0,0,0-.9,1.87q-.2.46-.33.9a3.39,3.39,0,0,0-.14.91,3.51,3.51,0,0,0,7,0Z"/></g></g></svg>