<svg xmlns="http://www.w3.org/2000/svg" viewBox="0 0 13.5 17"><defs><style>.cls-1{fill:#7000cb;}</style></defs><g id="Layer_2" data-name="Layer 2"><g id="Layer_1-2" data-name="Layer 1"><path class="cls-1" d="M4.36,13.71a4.11,4.11,0,0,0,0-8.22A3.89,3.89,0,0,0,1.47,6.67,4.29,4.29,0,0,0,.33,9.5a.31.31,0,0,0,.31.33A.32.32,0,0,0,1,9.52a3.59,3.59,0,0,1,1-2.4,3.27,3.27,0,0,1,2.43-1,3.47,3.47,0,0,1,0,6.94.32.32,0,1,0,0,.64Z"/><path class="cls-1" d="M4.36,13.71V14a4.44,4.44,0,0,0,0-8.88h0A4.24,4.24,0,0,0,1.23,6.45,4.58,4.58,0,0,0,0,9.49H0v0a.65.65,0,0,0,.63.65h0a.66.66,0,0,0,.65-.63,3.33,3.33,0,0,1,.87-2.19,2.94,2.94,0,0,1,2.19-.88,3.14,3.14,0,0,1,0,6.28.65.65,0,1,0,0,1.3v-.66h0a3.8,3.8,0,0,0,0-7.6A3.59,3.59,0,0,0,1.7,6.89,4,4,0,0,0,.64,9.51h0a4,4,0,0,1,1-2.61A3.59,3.59,0,0,1,4.35,5.81h0a3.79,3.79,0,0,1,0,7.57Z"/><path class="cls-1" d="M7,16.12a3.94,3.94,0,0,0-2.8-1.2,4.3,4.3,0,0,0-2.89,1.19.33.33,0,0,0,0,.46.32.32,0,0,0,.45,0,3.66,3.66,0,0,1,2.45-1,3.31,3.31,0,0,1,2.35,1,.31.31,0,0,0,.45,0A.32.32,0,0,0,7,16.12Z"/><path class="cls-1" d="M7,16.12l.23-.23a4.26,4.26,0,0,0-3-1.3h0v0a4.62,4.62,0,0,0-3.11,1.28.66.66,0,0,0-.21.48.62.62,0,0,0,.18.44.64.64,0,0,0,.47.21A.66.66,0,0,0,2,16.82a3.3,3.3,0,0,1,2.22-.93,2.94,2.94,0,0,1,2.12.92.61.61,0,0,0,.45.19.65.65,0,0,0,.65-.65.65.65,0,0,0-.19-.46L7,16.12l-.23.24h0a3.62,3.62,0,0,0-2.58-1.12,4,4,0,0,0-2.67,1.11h0a3.92,3.92,0,0,1,2.66-1.1h0a3.58,3.58,0,0,1,2.56,1.11Z"/><path class="cls-1" d="M12.81,2.75H10.75V.69a.69.69,0,1,0-1.38,0V3.44a.69.69,0,0,0,.69.69h2.75a.69.69,0,0,0,0-1.38Z"/></g></g></svg>