<svg xmlns="http://www.w3.org/2000/svg" viewBox="0 0 30.53 39.59"><defs><style>.cls-1{fill:#fff;}</style></defs><g id="Layer_2" data-name="Layer 2"><g id="Layer_1-2" data-name="Layer 1"><path class="cls-1" d="M16.17,25.9a9.75,9.75,0,0,0,0-19.5A9.28,9.28,0,0,0,9.31,9.21a10.15,10.15,0,0,0-2.71,6.7,1,1,0,1,0,2,.07,8.17,8.17,0,0,1,2.15-5.38,7.3,7.3,0,0,1,5.42-2.2,7.75,7.75,0,0,1,0,15.5,1,1,0,0,0,0,2Z"/><path class="cls-1" d="M22.78,31.23A9.74,9.74,0,0,0,9,31.23a1,1,0,1,0,1.41,1.41,7.76,7.76,0,0,1,11,0,1,1,0,1,0,1.41-1.41Z"/><path class="cls-1" d="M2,4.6V2H28.53V3.67a1,1,0,1,0,2,0V1a1,1,0,0,0-.29-.71A1,1,0,0,0,29.53,0H1A1.05,1.05,0,0,0,.29.29,1.05,1.05,0,0,0,0,1V4.6a1,1,0,0,0,2,0Z"/><path class="cls-1" d="M28.53,37.48v.11H2V35.93a1,1,0,0,0-2,0v2.66a1,1,0,0,0,1,1H29.53a1,1,0,0,0,.71-.3,1,1,0,0,0,.29-.7V37.48a1,1,0,1,0-2,0Z"/></g></g></svg>