<svg xmlns="http://www.w3.org/2000/svg" viewBox="0 0 85.6 68.27"><defs><style>.cls-1{opacity:0.4;}.cls-2,.cls-3{fill:none;stroke:#000;stroke-miterlimit:10;stroke-width:0.5px;}.cls-3{stroke-dasharray:6.85 6.85;}.cls-4{fill:#424242;}.cls-5{fill:#f9d6bb;}.cls-6{fill:#f58220;}</style></defs><g id="Layer_2" data-name="Layer 2"><g id="Layer_1-2" data-name="Layer 1"><g class="cls-1"><line class="cls-2" x1="58.16" y1="66.76" x2="61.66" y2="66.76"/><path class="cls-3" d="M68.51,66.76h7.71a9.14,9.14,0,0,0,9.13-9.14V9.39A9.14,9.14,0,0,0,76.22.25H12.73A9.14,9.14,0,0,0,3.6,9.39V21.62"/><line class="cls-2" x1="3.6" y1="25.04" x2="3.6" y2="28.54"/></g><path class="cls-4" d="M7.35,33.44c0,2-3.68,8.58-3.68,8.58S0,35.47,0,33.44a3.68,3.68,0,0,1,7.35,0ZM3.67,32a1.38,1.38,0,1,0,1.38,1.38A1.37,1.37,0,0,0,3.67,32Z"/><path class="cls-5" d="M65.55,34.78a19.7,19.7,0,1,1-19.7-19.69A19.7,19.7,0,0,1,65.55,34.78Z"/><path class="cls-6" d="M58.62,64.86a19.47,19.47,0,0,0-27.55,0,2,2,0,1,0,2.82,2.82,15.5,15.5,0,0,1,21.9,0,2,2,0,1,0,2.83-2.82Z"/><path class="cls-4" d="M61.79,37.35a25.08,25.08,0,0,1,1.78-2.84c.63-.92,1.84-2.35,2.57-3.2l0,.22c-.39-.3-.74-.65-1.11-1,.43.24.88.45,1.29.72l.12.08-.09.13c-.58,1-1.76,2.4-2.44,3.29A26.36,26.36,0,0,1,61.79,37.35Z"/><path class="cls-4" d="M57.15,49.32c2.74-4.72,6.32-9.38,9.51-13.8l0,.11-1.15-.9,1.24.77.06,0,0,.07C64,40.29,60.41,44.94,57.15,49.32Z"/><path class="cls-4" d="M29.24,37.35a26.46,26.46,0,0,1-2.16-2.57c-.67-.89-1.31-1.8-1.9-2.75l-.08-.14.12-.08c.41-.26.85-.48,1.28-.72-.37.33-.72.67-1.11,1l0-.21a32.76,32.76,0,0,1,2,2.66A25.08,25.08,0,0,1,29.24,37.35Z"/><path class="cls-4" d="M33.88,49.32c-3.26-4.76-6.19-9.12-9-14.16l0-.07.05,0,1.24-.78L25,35.18l0-.11A167.37,167.37,0,0,1,33.88,49.32Z"/><path class="cls-6" d="M45.91,8.38h0A19.25,19.25,0,0,1,65.16,27.63V28a0,0,0,0,1,0,0H26.66a0,0,0,0,1,0,0v-.4A19.25,19.25,0,0,1,45.91,8.38Z"/><path class="cls-6" d="M45.53,54.29h0A16.37,16.37,0,0,1,29.26,40.11l-.77-5.88,11.12,4.54.54.12a30.18,30.18,0,0,0,6.35.68,21.39,21.39,0,0,0,7.12-1.29L64,34.61,61.1,43.14A16.39,16.39,0,0,1,45.53,54.29Z"/></g></g></svg>