<svg xmlns="http://www.w3.org/2000/svg" viewBox="0 0 252.59 165.99"><defs><style>.cls-1{fill:#f9d6bb;}.cls-2{fill:#f58220;}.cls-3{fill:#424242;}.cls-4{fill:#6accab;}.cls-5,.cls-6{fill:none;stroke:#424242;stroke-miterlimit:10;stroke-width:0.5px;}.cls-6{stroke-dasharray:11.05 11.05;}</style></defs><g id="Layer_2" data-name="Layer 2"><g id="Layer_1-2" data-name="Layer 1"><path class="cls-1" d="M35.27,85.89A17.08,17.08,0,1,1,18.2,68.81,17.07,17.07,0,0,1,35.27,85.89Z"/><path class="cls-2" d="M29.26,112a16.9,16.9,0,0,0-23.88,0,1.73,1.73,0,1,0,2.45,2.45,13.42,13.42,0,0,1,19,0A1.73,1.73,0,1,0,29.26,112Z"/><path class="cls-3" d="M32,88.11a24.77,24.77,0,0,1,1.54-2.46c.56-.8,1.6-2,2.23-2.77l0,.19c-.33-.26-.64-.56-1-.84.37.2.76.39,1.11.62l.11.07L36,83c-.51.82-1.53,2.08-2.12,2.85A24.67,24.67,0,0,1,32,88.11Z"/><path class="cls-3" d="M28,98.49c2.38-4.09,5.48-8.13,8.25-12l0,.1-1-.79,1.08.67,0,0,0,.06C33.93,90.66,30.81,94.69,28,98.49Z"/><path class="cls-3" d="M3.79,88.11a24.67,24.67,0,0,1-1.87-2.22C1.34,85.12.78,84.32.27,83.5L.2,83.38l.1-.07c.36-.23.75-.41,1.12-.62-.32.28-.63.58-1,.84l0-.19a28.13,28.13,0,0,1,1.76,2.31A23.06,23.06,0,0,1,3.79,88.11Z"/><path class="cls-3" d="M7.82,98.49C5,94.36,2.45,90.59,0,86.21l0-.06.05,0,1.07-.68-1,.79v-.09A144.36,144.36,0,0,1,7.82,98.49Z"/><path class="cls-3" d="M34.94,80H1.55v-.35c0-7.4,6.56-11.34,13.82-12,2.42-.22,3.42-4.87,2.12-6.92,0,0,17.86,5.13,17.45,18.91Z"/><path class="cls-4" d="M17.92,102.8h0A14.2,14.2,0,0,1,3.81,90.5l-.67-5.09,9.64,3.94.47.1a26.18,26.18,0,0,0,5.51.59,18.59,18.59,0,0,0,6.17-1.12l9-3.18-2.48,7.4A14.23,14.23,0,0,1,17.92,102.8Z"/><path class="cls-1" d="M250.61,91.29a30.19,30.19,0,1,1-30.18-30.18A30.18,30.18,0,0,1,250.61,91.29Z"/><path class="cls-2" d="M240,137.38a29.86,29.86,0,0,0-42.22,0,3.06,3.06,0,1,0,4.33,4.33,23.73,23.73,0,0,1,33.56,0,3.06,3.06,0,0,0,4.33-4.33Z"/><path class="cls-3" d="M244.85,95.22a41.22,41.22,0,0,1,2.72-4.35c1-1.41,2.83-3.59,3.94-4.9l.05.33c-.59-.46-1.13-1-1.69-1.48.65.36,1.33.69,2,1.1L252,86l-.13.21c-.9,1.46-2.7,3.68-3.74,5A41.1,41.1,0,0,1,244.85,95.22Z"/><path class="cls-3" d="M237.74,113.56c4.2-7.22,9.68-14.37,14.58-21.13l0,.16-1.76-1.39,1.9,1.19.1.06-.06.11C248.24,99.73,242.73,106.86,237.74,113.56Z"/><path class="cls-3" d="M195,95.22a41.21,41.21,0,0,1-3.31-3.93,51.06,51.06,0,0,1-2.92-4.22l-.13-.21.19-.12c.63-.41,1.31-.74,2-1.1-.56.49-1.1,1-1.69,1.48l.05-.33c1.11,1.31,2.14,2.67,3.12,4.08A41.3,41.3,0,0,1,195,95.22Z"/><path class="cls-3" d="M202.08,113.56a254.31,254.31,0,0,1-13.76-21.7l-.06-.1.09-.06,1.9-1.2-1.77,1.39,0-.15C193.43,99.08,197.89,105.77,202.08,113.56Z"/><path class="cls-2" d="M220.51,50.82h0A29.51,29.51,0,0,1,250,80.33v.62a0,0,0,0,1,0,0H191a0,0,0,0,1,0,0v-.62a29.51,29.51,0,0,1,29.51-29.51Z"/><path class="cls-2" d="M219.94,121.19h0A25.09,25.09,0,0,1,195,99.45l-1.18-9,17,7,.84.17a45.51,45.51,0,0,0,9.73,1,32.72,32.72,0,0,0,10.9-2L248.19,91,243.8,104.1A25.14,25.14,0,0,1,219.94,121.19Z"/><path class="cls-5" d="M219.93,143a15.8,15.8,0,0,1-1,5.4"/><path class="cls-6" d="M212,156.64a15.64,15.64,0,0,1-7.75,2H156.66A15.7,15.7,0,0,1,141,143V67.36a36.44,36.44,0,0,0-36.43-36.44h0A36.44,36.44,0,0,0,68.09,67.36v82.69a15.69,15.69,0,0,1-15.7,15.69H34a15.69,15.69,0,0,1-15.7-15.69V134.39"/><line class="cls-5" x1="18.34" y1="128.87" x2="18.34" y2="123.37"/><path class="cls-1" d="M121.32,23.72A16.13,16.13,0,1,1,105.19,7.59,16.13,16.13,0,0,1,121.32,23.72Z"/><path class="cls-2" d="M115.64,48.35a16,16,0,0,0-22.56,0,1.64,1.64,0,1,0,2.31,2.32,12.67,12.67,0,0,1,17.94,0,1.64,1.64,0,1,0,2.31-2.32Z"/><path class="cls-3" d="M118.24,25.82a25.22,25.22,0,0,1,1.45-2.33c.53-.75,1.51-1.91,2.11-2.61l0,.18c-.32-.25-.61-.53-.91-.8.35.2.72.38,1,.59l.1.06L122,21c-.48.78-1.44,2-2,2.69A22,22,0,0,1,118.24,25.82Z"/><path class="cls-3" d="M114.44,35.63a136.46,136.46,0,0,1,7.79-11.3l0,.09-.94-.75,1,.64.06,0,0,.06C120.05,28.23,117.11,32,114.44,35.63Z"/><path class="cls-3" d="M91.58,25.82a22.09,22.09,0,0,1-1.77-2.1c-.55-.73-1.07-1.47-1.55-2.25l-.07-.12.1-.06c.33-.22.69-.39,1-.59-.31.27-.59.55-.91.79l0-.17c.59.7,1.14,1.42,1.66,2.17A23.33,23.33,0,0,1,91.58,25.82Z"/><path class="cls-3" d="M95.38,35.63C92.71,31.73,90.31,28.16,88,24L88,24l0,0,1-.64-.94.74V24C90.76,27.89,93.14,31.46,95.38,35.63Z"/><path class="cls-3" d="M121,18.2H89.47v-.34c0-7,6.19-10.7,13-11.32,2.28-.21,3.23-4.6,2-6.54,0,0,16.87,4.85,16.48,17.86Z"/><path class="cls-2" d="M104.93,39.7h0A13.41,13.41,0,0,1,91.6,28.08L91,23.27l9.1,3.72.45.1a24.56,24.56,0,0,0,5.2.55,17.4,17.4,0,0,0,5.83-1.05l8.47-3-2.34,7A13.44,13.44,0,0,1,104.93,39.7Z"/></g></g></svg>