<svg xmlns="http://www.w3.org/2000/svg" viewBox="0 0 10.15 14.49"><defs><style>.cls-1{fill:#f9d6bb;}.cls-2{fill:#6accab;}.cls-3{fill:#424242;}</style></defs><g id="Layer_2" data-name="Layer 2"><g id="Layer_1-2" data-name="Layer 1"><path class="cls-1" d="M9.84,6.39A4.77,4.77,0,1,1,5.08,1.62,4.76,4.76,0,0,1,9.84,6.39Z"/><path class="cls-2" d="M8.17,13.66a4.72,4.72,0,0,0-6.67,0,.49.49,0,0,0,0,.69.48.48,0,0,0,.68,0,3.74,3.74,0,0,1,5.3,0,.49.49,0,0,0,.69,0A.51.51,0,0,0,8.17,13.66Z"/><path class="cls-3" d="M8.93,7a8,8,0,0,1,.43-.69c.16-.22.45-.57.62-.77v0l-.27-.23.32.17,0,0,0,0c-.14.23-.42.58-.59.8A7.43,7.43,0,0,1,8.93,7Z"/><path class="cls-3" d="M7.81,9.9a40.18,40.18,0,0,1,2.3-3.33v0l-.28-.22.3.19h0v0A39.48,39.48,0,0,1,7.81,9.9Z"/><path class="cls-3" d="M1.06,7a7.43,7.43,0,0,1-.52-.62,7.25,7.25,0,0,1-.46-.67l0,0,0,0L.4,5.5l-.27.23V5.68c.17.2.33.42.49.64A8,8,0,0,1,1.06,7Z"/><path class="cls-3" d="M2.18,9.9A39.42,39.42,0,0,1,0,6.48v0H0l.3-.19L0,6.48v0A39.42,39.42,0,0,1,2.18,9.9Z"/><path class="cls-2" d="M5.09,0h0A4.66,4.66,0,0,1,9.75,4.66v.1a0,0,0,0,1,0,0H.43a0,0,0,0,1,0,0v-.1A4.66,4.66,0,0,1,5.09,0Z"/><path class="cls-2" d="M5,11.11H5A4,4,0,0,1,1.06,7.68L.88,6.25l2.69,1.1.13,0a7.17,7.17,0,0,0,1.53.17A5.14,5.14,0,0,0,7,7.23l2.5-.88L8.77,8.41A4,4,0,0,1,5,11.11Z"/></g></g></svg>